<?xml version="1.0" encoding="UTF-8"?>
<svg width="47px" height="32px" viewBox="0 0 47 32" version="1.1" xmlns="http://www.w3.org/2000/svg" xmlns:xlink="http://www.w3.org/1999/xlink">
    <title>logo</title>
    <g id="Account" stroke="none" stroke-width="1" fill="none" fill-rule="evenodd">
        <g id="Email" transform="translate(-696.000000, -197.000000)" fill="#FFFFFF">
            <g id="Group-6" transform="translate(420.000000, 189.000000)">
                <g id="Group-Copy" transform="translate(277.000000, 8.000000)">
                    <path d="M22.5,27.8300291 C25.0213989,27.8300291 27.3576451,27.0335071 29.2730977,25.6772302 L32.2433826,28.6614069 C29.6452495,30.6832279 26.4077992,31.9154354 22.8874673,31.9998903 L22.1125327,31.9998903 C18.584217,31.9152439 15.3400676,30.677633 12.7389504,28.6476389 L15.7078685,25.6637246 C17.6268688,27.0282178 19.9702433,27.8300291 22.5,27.8300291 Z M35.174,6.104 L45.0462768,15.9755892 L35.148,25.873 L32.217,22.928 L39.1574915,15.9897314 L32.23,9.062 L35.174,6.104 Z M9.809,6.12 L12.754,9.078 L5.84250849,15.9897314 L12.766,22.912 L9.835,25.857 L-0.0462767886,15.9755892 L9.809,6.12 Z M22.5,0 C26.1703131,0 29.550642,1.247504 32.2439074,3.3435349 L29.2732163,6.3273872 C27.3577415,4.97105919 25.0214509,4.17450436 22.5,4.17450436 C19.9703396,4.17450436 17.6270473,4.97625454 15.7080877,6.34065295 L12.7386433,3.35713418 C15.4347508,1.25290107 18.821756,0 22.5,0 Z" id="Combined-Shape"></path>
                    <path d="M22.5,7.09665742 C27.3950369,7.09665742 31.3632484,11.0838345 31.3632484,16.0022667 C31.3632484,20.9206989 27.3950369,24.907876 22.5,24.907876 C17.6049631,24.907876 13.6367516,20.9206989 13.6367516,16.0022667 C13.6367516,11.0838345 17.6049631,7.09665742 22.5,7.09665742 Z M22.4154982,7.6481679 L19.202012,15.7202797 C19.1312255,15.8980916 19.1312255,16.0962616 19.202012,16.2740736 L19.202012,16.2740736 L22.4154982,24.3461854 L25.6289844,16.2740736 C25.6997709,16.0962616 25.6997709,15.8980916 25.6289844,15.7202797 L25.6289844,15.7202797 L22.4154982,7.6481679 Z M22.4154982,15.2550425 C22.8283219,15.2550425 23.1629816,15.5873073 23.1629816,15.9971766 C23.1629816,16.407046 22.8283219,16.7393107 22.4154982,16.7393107 C22.0026745,16.7393107 21.6680148,16.407046 21.6680148,15.9971766 C21.6680148,15.5873073 22.0026745,15.2550425 22.4154982,15.2550425 Z" id="Combined-Shape"></path>
                </g>
            </g>
        </g>
    </g>
</svg>